<?xml version="1.0" encoding="UTF-8"?>
<!DOCTYPE svg PUBLIC "-//W3C//DTD SVG 1.1//EN" "http://www.w3.org/Graphics/SVG/1.1/DTD/svg11.dtd">
<!-- Creator: CorelDRAW 2020 (64-Bit) -->
<svg xmlns="http://www.w3.org/2000/svg" xml:space="preserve" width="210mm" height="297mm" version="1.1" style="shape-rendering:geometricPrecision; text-rendering:geometricPrecision; image-rendering:optimizeQuality; fill-rule:evenodd; clip-rule:evenodd"
viewBox="0 0 21000 29700"
 xmlns:xlink="http://www.w3.org/1999/xlink"
 xmlns:xodm="http://www.corel.com/coreldraw/odm/2003">
 <defs>
  <style type="text/css">
   <![CDATA[
    .str0 {stroke:black;stroke-width:105.83;stroke-miterlimit:22.9256}
    .str1 {stroke:#2B2A29;stroke-width:20;stroke-miterlimit:22.9256}
    .fil3 {fill:none}
    .fil2 {fill:#2B2A29}
    .fil1 {fill:#7688A1}
    .fil4 {fill:white}
    .fil0 {fill:#2B2A29;fill-rule:nonzero}
   ]]>
  </style>
 </defs>
 <g id="Слой_x0020_1">
  <metadata id="CorelCorpID_0Corel-Layer"/>
  <g id="_1979549383792">
   <path class="fil0 str0" d="M10500 4350c-5798.64,0 -10500,4701.36 -10500,10500 0,5799.29 4701.36,10500 10500,10500 5798.64,0 10500,-4700.71 10500,-10500 -0.07,-5798.64 -4701.43,-10500 -10500,-10500zm2941.24 18498.99c-60.41,-821.63 -127.95,-1839.48 -131.92,-2251.6 -26.24,-316.31 -60.41,-1120.86 -824.23,-1634.69 3032.5,-253.96 4475.58,-1930.02 4579.31,-4144.85 86.65,-1261.28 -414.78,-2370.39 -1305.26,-3265.48 45.27,-957.44 -28.91,-2092.14 -90.54,-2590.83 -683.8,-196.87 -2278.48,645.09 -2724.12,1005.38 -939.78,-364.9 -3239.89,-492.85 -4637.7,0 -990.96,-696.92 -2119.03,-1127.42 -2733.92,-1007.33 -567.67,1258.04 -202.78,2447.16 -91.91,2588.89 -731.09,668.09 -1750.89,1490.37 -1473.94,3213 444.26,2525.88 2221.39,3888.3 5082.62,4221.63 -610.28,124.71 -713.36,580.15 -764.54,777.66 -1921.52,792.73 -2470.74,-489.53 -2713.59,-823.58 -806.49,-998.17 -1530.38,-708.75 -1575,-693.03 -43.32,15.71 -76.12,78.72 -71.51,108.92 40.66,215.25 479.73,433.81 501.36,451.47 595.21,443.62 815.72,1244.92 951.53,1473.29 853.78,1403.72 2838.3,821.63 2857.33,833.45 1.3,122.69 -13.77,1155.68 -25.59,1959.58 -3618.48,-988.37 -6280.89,-4289.32 -6280.89,-8220.87 0,-4711.88 3819.39,-8531.2 8531.2,-8531.2 4711.81,0 8531.27,3819.32 8531.27,8531.2 0,3676.95 -2329.67,6799.99 -5589.96,7998.99z"/>
  </g>
  <g id="_1979549385136">
  </g>
  <g id="_1979549385616">
  </g>
  <g id="_1979549384320">
  </g>
  <g id="_1979549382208">
  </g>
  <g id="_1979549380384">
  </g>
  <g id="_1979549379760">
  </g>
  <g id="_1979549382544">
  </g>
  <g id="_1979549376880">
  </g>
  <g id="_1979549379136">
  </g>
  <g id="_1979549375776">
  </g>
  <g id="_1979549375200">
  </g>
  <g id="_1979549374288">
  </g>
  <g id="_1979549374240">
  </g>
  <g id="_1979549405536">
  </g>
  <g id="_1979549406112">
  </g>
  <path class="fil1 str1" d="M8306.78 9966.92c-990.96,-696.92 -2119.03,-1127.42 -2733.92,-1007.33 -567.67,1258.04 -202.78,2447.16 -91.91,2588.89 -731.09,668.09 -1750.89,1490.37 -1473.94,3213 444.26,2525.88 2221.39,3888.3 5082.62,4221.63 -610.28,124.71 -713.36,580.15 -764.54,777.66 -1921.52,792.73 -2470.74,-489.53 -2713.59,-823.58 -806.49,-998.17 -1530.38,-708.75 -1575,-693.03 -43.32,15.71 -76.12,78.72 -71.51,108.92 40.66,215.25 479.73,433.81 501.36,451.47 595.21,443.62 815.72,1244.92 951.53,1473.29 853.78,1403.72 2838.3,821.63 2857.33,833.45 1.3,122.69 -13.77,1155.68 -25.59,1959.58 -3618.48,-988.37 -6280.89,-4289.32 -6280.89,-8220.87 0,-4711.88 3819.39,-8531.2 8531.2,-8531.2 4711.81,0 8531.27,3819.32 8531.27,8531.2 0,3676.95 -2329.67,6799.99 -5589.96,7998.99 -60.41,-821.63 -127.95,-1839.48 -131.92,-2251.6 -26.24,-316.31 -60.41,-1120.86 -824.23,-1634.69 3032.5,-253.96 4475.58,-1930.02 4579.31,-4144.85 86.65,-1261.28 -414.78,-2370.39 -1305.26,-3265.48 45.27,-957.44 -28.91,-2092.14 -90.54,-2590.83 -683.8,-196.87 -2278.48,645.09 -2724.12,1005.38 -939.78,-364.9 -3239.89,-492.85 -4637.7,0zm2193.22 -5616.92c-5798.64,0 -10500,4701.36 -10500,10500 0,5799.29 4701.36,10500 10500,10500 5798.64,0 10500,-4700.71 10500,-10500 -0.07,-5798.64 -4701.43,-10500 -10500,-10500z"/>
  <path class="fil2 str1" d="M5572.86 8959.59c614.89,-120.09 1742.96,310.41 2733.92,1007.33 1397.81,-492.85 3697.92,-364.9 4637.7,0 445.64,-360.29 2040.32,-1202.25 2724.12,-1005.38 61.63,498.69 135.81,1633.39 90.54,2590.83 890.48,895.09 1391.91,2004.2 1305.26,3265.48 -103.73,2214.83 -1546.81,3890.89 -4579.31,4144.85 763.82,513.83 797.99,1318.38 824.23,1634.69 3.97,412.12 71.51,1429.97 131.92,2251.6 3260.29,-1199 5589.96,-4322.04 5589.96,-7998.99 0,-4711.88 -3819.46,-8531.2 -8531.27,-8531.2 -4711.81,0 -8531.2,3819.32 -8531.2,8531.2 0,3931.55 2662.41,7232.5 6280.89,8220.87 11.82,-803.9 26.89,-1836.89 25.59,-1959.58 -19.03,-11.82 -2003.55,570.27 -2857.33,-833.45 -135.81,-228.37 -356.32,-1029.67 -951.53,-1473.29 -21.63,-17.66 -460.7,-236.22 -501.36,-451.47 -4.61,-30.2 28.19,-93.21 71.51,-108.92 44.62,-15.72 768.51,-305.14 1575,693.03 242.85,334.05 792.07,1616.31 2713.59,823.58 51.18,-197.51 154.26,-652.95 764.54,-777.66 -2861.23,-333.33 -4638.36,-1695.75 -5082.62,-4221.63 -276.95,-1722.63 742.85,-2544.91 1473.94,-3213 -110.87,-141.73 -475.76,-1330.85 91.91,-2588.89z"/>
  <path class="fil3 str1" d="M1968.73 14850c0,-4711.88 3819.39,-8531.2 8531.2,-8531.2 4711.81,0 8531.27,3819.32 8531.27,8531.2 0,3676.95 -2329.67,6799.99 -5589.96,7998.99 -60.41,-821.63 -127.95,-1839.48 -131.92,-2251.6 -26.24,-316.31 -60.41,-1120.86 -824.23,-1634.69 3032.5,-253.96 4475.58,-1930.02 4579.31,-4144.85 86.65,-1261.28 -414.78,-2370.39 -1305.26,-3265.48 45.27,-957.44 -28.91,-2092.14 -90.54,-2590.83 -683.8,-196.87 -2278.48,645.09 -2724.12,1005.38 -939.78,-364.9 -3239.89,-492.85 -4637.7,0 -990.96,-696.92 -2119.03,-1127.42 -2733.92,-1007.33 -567.67,1258.04 -202.78,2447.16 -91.91,2588.89 -731.09,668.09 -1750.89,1490.37 -1473.94,3213 444.26,2525.88 2221.39,3888.3 5082.62,4221.63 -610.28,124.71 -713.36,580.15 -764.54,777.66 -1921.52,792.73 -2470.74,-489.53 -2713.59,-823.58 -806.49,-998.17 -1530.38,-708.75 -1575,-693.03 -43.32,15.71 -76.12,78.72 -71.51,108.92 40.66,215.25 479.73,433.81 501.36,451.47 595.21,443.62 815.72,1244.92 951.53,1473.29 853.78,1403.72 2838.3,821.63 2857.33,833.45 1.3,122.69 -13.77,1155.68 -25.59,1959.58 -3618.48,-988.37 -6280.89,-4289.32 -6280.89,-8220.87zm8531.27 -10500c-5798.64,0 -10500,4701.36 -10500,10500 0,5799.29 4701.36,10500 10500,10500 5798.64,0 10500,-4700.71 10500,-10500 -0.07,-5798.64 -4701.43,-10500 -10500,-10500z"/>
  <path class="fil3 str1" d="M5572.86 8959.59c-567.67,1258.04 -202.78,2447.16 -91.91,2588.89 -731.09,668.09 -1750.89,1490.37 -1473.94,3213 444.26,2525.88 2221.39,3888.3 5082.62,4221.63 -610.28,124.71 -713.36,580.15 -764.54,777.66 -1921.52,792.73 -2470.74,-489.53 -2713.59,-823.58 -806.49,-998.17 -1530.38,-708.75 -1575,-693.03 -43.32,15.71 -76.12,78.72 -71.51,108.92 40.66,215.25 479.73,433.81 501.36,451.47 595.21,443.62 815.72,1244.92 951.53,1473.29 853.78,1403.72 2838.3,821.63 2857.33,833.45 1.3,122.69 -13.77,1155.68 -25.59,1959.58 -3618.48,-988.37 -6280.89,-4289.32 -6280.89,-8220.87 0,-4711.88 3819.39,-8531.2 8531.2,-8531.2 4711.81,0 8531.27,3819.32 8531.27,8531.2 0,3676.95 -2329.67,6799.99 -5589.96,7998.99 -60.41,-821.63 -127.95,-1839.48 -131.92,-2251.6 -26.24,-316.31 -60.41,-1120.86 -824.23,-1634.69 3032.5,-253.96 4475.58,-1930.02 4579.31,-4144.85 86.65,-1261.28 -414.78,-2370.39 -1305.26,-3265.48 45.27,-957.44 -28.91,-2092.14 -90.54,-2590.83 -683.8,-196.87 -2278.48,645.09 -2724.12,1005.38 -939.78,-364.9 -3239.89,-492.85 -4637.7,0 -990.96,-696.92 -2119.03,-1127.42 -2733.92,-1007.33zm4927.14 -4609.59c-5798.64,0 -10500,4701.36 -10500,10500 0,5799.29 4701.36,10500 10500,10500 5798.64,0 10500,-4700.71 10500,-10500 -0.07,-5798.64 -4701.43,-10500 -10500,-10500z"/>
  <path class="fil1 str1" d="M1968.73 14850c0,-4711.88 3819.39,-8531.2 8531.2,-8531.2 4711.81,0 8531.27,3819.32 8531.27,8531.2 0,3676.95 -2329.67,6799.99 -5589.96,7998.99 -60.41,-821.63 -127.95,-1839.48 -131.92,-2251.6 -26.24,-316.31 -60.41,-1120.86 -824.23,-1634.69 3032.5,-253.96 4475.58,-1930.02 4579.31,-4144.85 86.65,-1261.28 -414.78,-2370.39 -1305.26,-3265.48 45.27,-957.44 -28.91,-2092.14 -90.54,-2590.83 -683.8,-196.87 -2278.48,645.09 -2724.12,1005.38 -939.78,-364.9 -3239.89,-492.85 -4637.7,0 -990.96,-696.92 -2119.03,-1127.42 -2733.92,-1007.33 -567.67,1258.04 -202.78,2447.16 -91.91,2588.89 -731.09,668.09 -1750.89,1490.37 -1473.94,3213 444.26,2525.88 2221.39,3888.3 5082.62,4221.63 -610.28,124.71 -713.36,580.15 -764.54,777.66 -1921.52,792.73 -2470.74,-489.53 -2713.59,-823.58 -806.49,-998.17 -1530.38,-708.75 -1575,-693.03 -43.32,15.71 -76.12,78.72 -71.51,108.92 40.66,215.25 479.73,433.81 501.36,451.47 595.21,443.62 815.72,1244.92 951.53,1473.29 853.78,1403.72 2838.3,821.63 2857.33,833.45 1.3,122.69 -13.77,1155.68 -25.59,1959.58 -3618.48,-988.37 -6280.89,-4289.32 -6280.89,-8220.87zm8531.27 -10500c-5798.64,0 -10500,4701.36 -10500,10500 0,5799.29 4701.36,10500 10500,10500 5798.64,0 10500,-4700.71 10500,-10500 -0.07,-5798.64 -4701.43,-10500 -10500,-10500z"/>
  <path class="fil1 str1" d="M1968.73 14850c0,-4711.88 3819.39,-8531.2 8531.2,-8531.2 4711.81,0 8531.27,3819.32 8531.27,8531.2 0,3676.95 -2329.67,6799.99 -5589.96,7998.99 -60.41,-821.63 -127.95,-1839.48 -131.92,-2251.6 -26.24,-316.31 -60.41,-1120.86 -824.23,-1634.69 3032.5,-253.96 4475.58,-1930.02 4579.31,-4144.85 86.65,-1261.28 -414.78,-2370.39 -1305.26,-3265.48 45.27,-957.44 -28.91,-2092.14 -90.54,-2590.83 -683.8,-196.87 -2278.48,645.09 -2724.12,1005.38 -939.78,-364.9 -3239.89,-492.85 -4637.7,0 -990.96,-696.92 -2119.03,-1127.42 -2733.92,-1007.33 -567.67,1258.04 -202.78,2447.16 -91.91,2588.89 -731.09,668.09 -1750.89,1490.37 -1473.94,3213 444.26,2525.88 2221.39,3888.3 5082.62,4221.63 -610.28,124.71 -713.36,580.15 -764.54,777.66 -1921.52,792.73 -2470.74,-489.53 -2713.59,-823.58 -806.49,-998.17 -1530.38,-708.75 -1575,-693.03 -43.32,15.71 -76.12,78.72 -71.51,108.92 40.66,215.25 479.73,433.81 501.36,451.47 595.21,443.62 815.72,1244.92 951.53,1473.29 853.78,1403.72 2838.3,821.63 2857.33,833.45 1.3,122.69 -13.77,1155.68 -25.59,1959.58 -3618.48,-988.37 -6280.89,-4289.32 -6280.89,-8220.87zm8531.27 -10500c-5798.64,0 -10500,4701.36 -10500,10500 0,5799.29 4701.36,10500 10500,10500 5798.64,0 10500,-4700.71 10500,-10500 -0.07,-5798.64 -4701.43,-10500 -10500,-10500z"/>
  <path class="fil3 str1" d="M1968.73 14850c0,-4711.88 3819.39,-8531.2 8531.2,-8531.2 4711.81,0 8531.27,3819.32 8531.27,8531.2 0,3676.95 -2329.67,6799.99 -5589.96,7998.99 -60.41,-821.63 -127.95,-1839.48 -131.92,-2251.6 -26.24,-316.31 -60.41,-1120.86 -824.23,-1634.69 3032.5,-253.96 4475.58,-1930.02 4579.31,-4144.85 86.65,-1261.28 -414.78,-2370.39 -1305.26,-3265.48 45.27,-957.44 -28.91,-2092.14 -90.54,-2590.83 -683.8,-196.87 -2278.48,645.09 -2724.12,1005.38 -939.78,-364.9 -3239.89,-492.85 -4637.7,0 -990.96,-696.92 -2119.03,-1127.42 -2733.92,-1007.33 -567.67,1258.04 -202.78,2447.16 -91.91,2588.89 -731.09,668.09 -1750.89,1490.37 -1473.94,3213 444.26,2525.88 2221.39,3888.3 5082.62,4221.63 -610.28,124.71 -713.36,580.15 -764.54,777.66 -1921.52,792.73 -2470.74,-489.53 -2713.59,-823.58 -806.49,-998.17 -1530.38,-708.75 -1575,-693.03 -43.32,15.71 -76.12,78.72 -71.51,108.92 40.66,215.25 479.73,433.81 501.36,451.47 595.21,443.62 815.72,1244.92 951.53,1473.29 853.78,1403.72 2838.3,821.63 2857.33,833.45 1.3,122.69 -13.77,1155.68 -25.59,1959.58 -3618.48,-988.37 -6280.89,-4289.32 -6280.89,-8220.87zm8531.27 -10500c-5798.64,0 -10500,4701.36 -10500,10500 0,5799.29 4701.36,10500 10500,10500 5798.64,0 10500,-4700.71 10500,-10500 -0.07,-5798.64 -4701.43,-10500 -10500,-10500z"/>
  <path class="fil1 str1" d="M1968.73 14850c0,-4711.88 3819.39,-8531.2 8531.2,-8531.2 4711.81,0 8531.27,3819.32 8531.27,8531.2 0,3676.95 -2329.67,6799.99 -5589.96,7998.99 -60.41,-821.63 -127.95,-1839.48 -131.92,-2251.6 -26.24,-316.31 -60.41,-1120.86 -824.23,-1634.69 3032.5,-253.96 4475.58,-1930.02 4579.31,-4144.85 86.65,-1261.28 -414.78,-2370.39 -1305.26,-3265.48 45.27,-957.44 -28.91,-2092.14 -90.54,-2590.83 -683.8,-196.87 -2278.48,645.09 -2724.12,1005.38 -939.78,-364.9 -3239.89,-492.85 -4637.7,0 -990.96,-696.92 -2119.03,-1127.42 -2733.92,-1007.33 -567.67,1258.04 -202.78,2447.16 -91.91,2588.89 -731.09,668.09 -1750.89,1490.37 -1473.94,3213 444.26,2525.88 2221.39,3888.3 5082.62,4221.63 -610.28,124.71 -713.36,580.15 -764.54,777.66 -1921.52,792.73 -2470.74,-489.53 -2713.59,-823.58 -806.49,-998.17 -1530.38,-708.75 -1575,-693.03 -43.32,15.71 -76.12,78.72 -71.51,108.92 40.66,215.25 479.73,433.81 501.36,451.47 595.21,443.62 815.72,1244.92 951.53,1473.29 853.78,1403.72 2838.3,821.63 2857.33,833.45 1.3,122.69 -13.77,1155.68 -25.59,1959.58 -3618.48,-988.37 -6280.89,-4289.32 -6280.89,-8220.87zm8531.27 -10500c-5798.64,0 -10500,4701.36 -10500,10500 0,5799.29 4701.36,10500 10500,10500 5798.64,0 10500,-4700.71 10500,-10500 -0.07,-5798.64 -4701.43,-10500 -10500,-10500z"/>
  <path class="fil1 str1" d="M1968.73 14850c0,-4711.88 3819.39,-8531.2 8531.2,-8531.2 4711.81,0 8531.27,3819.32 8531.27,8531.2 0,3676.95 -2329.67,6799.99 -5589.96,7998.99 -60.41,-821.63 -127.95,-1839.48 -131.92,-2251.6 -26.24,-316.31 -60.41,-1120.86 -824.23,-1634.69 3032.5,-253.96 4475.58,-1930.02 4579.31,-4144.85 86.65,-1261.28 -414.78,-2370.39 -1305.26,-3265.48 45.27,-957.44 -28.91,-2092.14 -90.54,-2590.83 -683.8,-196.87 -2278.48,645.09 -2724.12,1005.38 -939.78,-364.9 -3239.89,-492.85 -4637.7,0 -990.96,-696.92 -2119.03,-1127.42 -2733.92,-1007.33 -567.67,1258.04 -202.78,2447.16 -91.91,2588.89 -731.09,668.09 -1750.89,1490.37 -1473.94,3213 444.26,2525.88 2221.39,3888.3 5082.62,4221.63 -610.28,124.71 -713.36,580.15 -764.54,777.66 -1921.52,792.73 -2470.74,-489.53 -2713.59,-823.58 -806.49,-998.17 -1530.38,-708.75 -1575,-693.03 -43.32,15.71 -76.12,78.72 -71.51,108.92 40.66,215.25 479.73,433.81 501.36,451.47 595.21,443.62 815.72,1244.92 951.53,1473.29 853.78,1403.72 2838.3,821.63 2857.33,833.45 1.3,122.69 -13.77,1155.68 -25.59,1959.58 -3618.48,-988.37 -6280.89,-4289.32 -6280.89,-8220.87zm8531.27 -10500c-5798.64,0 -10500,4701.36 -10500,10500 0,5799.29 4701.36,10500 10500,10500 5798.64,0 10500,-4700.71 10500,-10500 -0.07,-5798.64 -4701.43,-10500 -10500,-10500z"/>
  <path class="fil1 str1" d="M1968.73 14850c0,-4711.88 3819.39,-8531.2 8531.2,-8531.2 4711.81,0 8531.27,3819.32 8531.27,8531.2 0,3676.95 -2329.67,6799.99 -5589.96,7998.99 -60.41,-821.63 -127.95,-1839.48 -131.92,-2251.6 -26.24,-316.31 -60.41,-1120.86 -824.23,-1634.69 3032.5,-253.96 4475.58,-1930.02 4579.31,-4144.85 86.65,-1261.28 -414.78,-2370.39 -1305.26,-3265.48 45.27,-957.44 -28.91,-2092.14 -90.54,-2590.83 -683.8,-196.87 -2278.48,645.09 -2724.12,1005.38 -939.78,-364.9 -3239.89,-492.85 -4637.7,0 -990.96,-696.92 -2119.03,-1127.42 -2733.92,-1007.33 -567.67,1258.04 -202.78,2447.16 -91.91,2588.89 -731.09,668.09 -1750.89,1490.37 -1473.94,3213 444.26,2525.88 2221.39,3888.3 5082.62,4221.63 -610.28,124.71 -713.36,580.15 -764.54,777.66 -1921.52,792.73 -2470.74,-489.53 -2713.59,-823.58 -806.49,-998.17 -1530.38,-708.75 -1575,-693.03 -43.32,15.71 -76.12,78.72 -71.51,108.92 40.66,215.25 479.73,433.81 501.36,451.47 595.21,443.62 815.72,1244.92 951.53,1473.29 853.78,1403.72 2838.3,821.63 2857.33,833.45 1.3,122.69 -13.77,1155.68 -25.59,1959.58 -3618.48,-988.37 -6280.89,-4289.32 -6280.89,-8220.87zm8531.27 -10500c-5798.64,0 -10500,4701.36 -10500,10500 0,5799.29 4701.36,10500 10500,10500 5798.64,0 10500,-4700.71 10500,-10500 -0.07,-5798.64 -4701.43,-10500 -10500,-10500z"/>
  <path class="fil3 str1" d="M1968.73 14850c0,-4711.88 3819.39,-8531.2 8531.2,-8531.2 4711.81,0 8531.27,3819.32 8531.27,8531.2 0,3676.95 -2329.67,6799.99 -5589.96,7998.99 -60.41,-821.63 -127.95,-1839.48 -131.92,-2251.6 -26.24,-316.31 -60.41,-1120.86 -824.23,-1634.69 3032.5,-253.96 4475.58,-1930.02 4579.31,-4144.85 86.65,-1261.28 -414.78,-2370.39 -1305.26,-3265.48 45.27,-957.44 -28.91,-2092.14 -90.54,-2590.83 -683.8,-196.87 -2278.48,645.09 -2724.12,1005.38 -939.78,-364.9 -3239.89,-492.85 -4637.7,0 -990.96,-696.92 -2119.03,-1127.42 -2733.92,-1007.33 -567.67,1258.04 -202.78,2447.16 -91.91,2588.89 -731.09,668.09 -1750.89,1490.37 -1473.94,3213 444.26,2525.88 2221.39,3888.3 5082.62,4221.63 -610.28,124.71 -713.36,580.15 -764.54,777.66 -1921.52,792.73 -2470.74,-489.53 -2713.59,-823.58 -806.49,-998.17 -1530.38,-708.75 -1575,-693.03 -43.32,15.71 -76.12,78.72 -71.51,108.92 40.66,215.25 479.73,433.81 501.36,451.47 595.21,443.62 815.72,1244.92 951.53,1473.29 853.78,1403.72 2838.3,821.63 2857.33,833.45 1.3,122.69 -13.77,1155.68 -25.59,1959.58 -3618.48,-988.37 -6280.89,-4289.32 -6280.89,-8220.87zm8531.27 -10500c-5798.64,0 -10500,4701.36 -10500,10500 0,5799.29 4701.36,10500 10500,10500 5798.64,0 10500,-4700.71 10500,-10500 -0.07,-5798.64 -4701.43,-10500 -10500,-10500z"/>
  <path class="fil1 str1" d="M5572.86 8959.59c-567.67,1258.04 -202.78,2447.16 -91.91,2588.89 -731.09,668.09 -1750.89,1490.37 -1473.94,3213 444.26,2525.88 2221.39,3888.3 5082.62,4221.63 -610.28,124.71 -713.36,580.15 -764.54,777.66 -1921.52,792.73 -2470.74,-489.53 -2713.59,-823.58 -806.49,-998.17 -1530.38,-708.75 -1575,-693.03 -43.32,15.71 -76.12,78.72 -71.51,108.92 40.66,215.25 479.73,433.81 501.36,451.47 595.21,443.62 815.72,1244.92 951.53,1473.29 853.78,1403.72 2838.3,821.63 2857.33,833.45 1.3,122.69 -13.77,1155.68 -25.59,1959.58 -3618.48,-988.37 -6280.89,-4289.32 -6280.89,-8220.87 0,-4711.88 3819.39,-8531.2 8531.2,-8531.2 4711.81,0 8531.27,3819.32 8531.27,8531.2 0,3676.95 -2329.67,6799.99 -5589.96,7998.99 -60.41,-821.63 -127.95,-1839.48 -131.92,-2251.6 -26.24,-316.31 -60.41,-1120.86 -824.23,-1634.69 3032.5,-253.96 4475.58,-1930.02 4579.31,-4144.85 86.65,-1261.28 -414.78,-2370.39 -1305.26,-3265.48 45.27,-957.44 -28.91,-2092.14 -90.54,-2590.83 -683.8,-196.87 -2278.48,645.09 -2724.12,1005.38 -939.78,-364.9 -3239.89,-492.85 -4637.7,0 -990.96,-696.92 -2119.03,-1127.42 -2733.92,-1007.33zm4927.14 -4609.59c-5798.64,0 -10500,4701.36 -10500,10500 0,5799.29 4701.36,10500 10500,10500 5798.64,0 10500,-4700.71 10500,-10500 -0.07,-5798.64 -4701.43,-10500 -10500,-10500z"/>
  <path class="fil4 str1" d="M5572.86 8959.59c-567.67,1258.04 -202.78,2447.16 -91.91,2588.89 -731.09,668.09 -1750.89,1490.37 -1473.94,3213 444.26,2525.88 2221.39,3888.3 5082.62,4221.63 -610.28,124.71 -713.36,580.15 -764.54,777.66 -1921.52,792.73 -2470.74,-489.53 -2713.59,-823.58 -806.49,-998.17 -1530.38,-708.75 -1575,-693.03 -43.32,15.71 -76.12,78.72 -71.51,108.92 40.66,215.25 479.73,433.81 501.36,451.47 595.21,443.62 815.72,1244.92 951.53,1473.29 853.78,1403.72 2838.3,821.63 2857.33,833.45 1.3,122.69 -13.77,1155.68 -25.59,1959.58 -3618.48,-988.37 -6280.89,-4289.32 -6280.89,-8220.87 0,-4711.88 3819.39,-8531.2 8531.2,-8531.2 4711.81,0 8531.27,3819.32 8531.27,8531.2 0,3676.95 -2329.67,6799.99 -5589.96,7998.99 -60.41,-821.63 -127.95,-1839.48 -131.92,-2251.6 -26.24,-316.31 -60.41,-1120.86 -824.23,-1634.69 3032.5,-253.96 4475.58,-1930.02 4579.31,-4144.85 86.65,-1261.28 -414.78,-2370.39 -1305.26,-3265.48 45.27,-957.44 -28.91,-2092.14 -90.54,-2590.83 -683.8,-196.87 -2278.48,645.09 -2724.12,1005.38 -939.78,-364.9 -3239.89,-492.85 -4637.7,0 -990.96,-696.92 -2119.03,-1127.42 -2733.92,-1007.33zm4927.14 -4609.59c-5798.64,0 -10500,4701.36 -10500,10500 0,5799.29 4701.36,10500 10500,10500 5798.64,0 10500,-4700.71 10500,-10500 -0.07,-5798.64 -4701.43,-10500 -10500,-10500z"/>
 </g>
</svg>
