<?xml version="1.0" encoding="UTF-8"?>
<!DOCTYPE svg PUBLIC "-//W3C//DTD SVG 1.1//EN" "http://www.w3.org/Graphics/SVG/1.1/DTD/svg11.dtd">
<!-- Creator: CorelDRAW 2020 (64-Bit) -->
<svg xmlns="http://www.w3.org/2000/svg" xml:space="preserve" width="288mm" height="297mm" version="1.1" style="shape-rendering:geometricPrecision; text-rendering:geometricPrecision; image-rendering:optimizeQuality; fill-rule:evenodd; clip-rule:evenodd"
viewBox="0 0 28800 29700"
 xmlns:xlink="http://www.w3.org/1999/xlink"
 xmlns:xodm="http://www.corel.com/coreldraw/odm/2003">
 <defs>
  <style type="text/css">
   <![CDATA[
    .fil1 {fill:none}
    .fil0 {fill:none;fill-rule:nonzero}
    .fil2 {fill:#008DD2;fill-rule:nonzero}
   ]]>
  </style>
 </defs>
 <g id="Слой_x0020_1">
  <metadata id="CorelCorpID_0Corel-Layer"/>
  <g id="_1979657378800">
   <g>
    <circle id="XMLID_11_" class="fil0" cx="15013.64" cy="16559.42" r="10500"/>
   </g>
   <path class="fil1" d="M14617.02 21164.61l824.12 0c0,0 248.94,-27.33 376.03,-164.34 116.98,-125.78 113.24,-361.99 113.24,-361.99 0,0 -16.1,-1105.81 497.13,-1268.65 505.93,-160.41 1155.6,1068.75 1844.21,1541.37 520.71,357.69 916.4,279.26 916.4,279.26l1841.22 -25.64c0,0 963.19,-59.33 506.49,-816.63 -37.43,-61.95 -265.97,-560.21 -1368.98,-1584.04 -1154.48,-1071.56 -999.88,-898.24 390.82,-2751.81 846.96,-1128.84 1185.55,-1818.01 1079.8,-2113.18 -100.89,-281.13 -723.8,-206.83 -723.8,-206.83l-2073.12 12.91c0,0 -153.67,-20.96 -267.66,47.17 -111.37,66.82 -183.05,222.55 -183.05,222.55 0,0 -328.11,873.53 -765.72,1616.42 -923.13,1567.57 -1292.24,1650.3 -1443.1,1552.97 -350.95,-226.85 -263.35,-911.34 -263.35,-1397.62 0,-1519.09 230.41,-2152.48 -448.65,-2316.45 -225.36,-54.47 -391.19,-90.4 -967.49,-96.21 -739.71,-7.67 -1365.8,2.25 -1720.3,175.94 -235.84,115.49 -417.77,372.85 -306.96,387.63 137.01,18.34 447.34,83.67 611.87,307.71 212.44,288.99 204.95,938.11 204.95,938.11 0,0 122.04,1788.25 -285.06,2010.42 -279.45,152.36 -662.78,-158.72 -1485.77,-1580.86 -421.7,-728.48 -740.08,-1533.69 -740.08,-1533.69 0,0 -61.39,-150.49 -170.89,-230.97 -132.89,-97.52 -318.57,-128.59 -318.57,-128.59l-1969.99 12.91c0,0 -295.73,8.24 -404.29,136.82 -96.58,114.36 -7.67,350.95 -7.67,350.95 0,0 1542.3,3608.31 3288.62,5426.69 1601.22,1667.17 3419.6,1557.67 3419.6,1557.67l0 0z"/>
  </g>
  <g id="_1979657409568">
  </g>
  <g id="_1979657409232">
  </g>
  <g id="_1979657409136">
  </g>
  <g id="_1979657409184">
  </g>
  <g id="_1979657408992">
  </g>
  <g id="_1979657410048">
  </g>
  <g id="_1979657408560">
  </g>
  <g id="_1979701752768">
  </g>
  <g id="_1979701754784">
  </g>
  <g id="_1979701751712">
  </g>
  <g id="_1979701798272">
  </g>
  <g id="_1979701789680">
  </g>
  <g id="_1979701787904">
  </g>
  <g id="_1979701766160">
  </g>
  <g id="_1979701765296">
  </g>
  <path class="fil2" d="M13644.2 22490.9l1582.9 0c0,0 478.14,-52.49 722.24,-315.65 224.68,-241.58 217.5,-695.27 217.5,-695.27 0,0 -30.92,-2123.94 954.84,-2436.71 971.75,-308.1 2219.57,2052.76 3542.19,2960.52 1000.13,687.02 1760.14,536.38 1760.14,536.38l3536.44 -49.25c0,0 1850.01,-113.95 972.82,-1568.51 -71.89,-118.98 -510.85,-1076 -2629.41,-3042.47 -2217.42,-2058.16 -1920.48,-1725.26 750.65,-5285.43 1626.77,-2168.17 2277.1,-3491.86 2073.98,-4058.8 -193.78,-539.97 -1390.2,-397.26 -1390.2,-397.26l-3981.86 24.8c0,0 -295.16,-40.26 -514.1,90.6 -213.91,128.34 -351.59,427.45 -351.59,427.45 0,0 -630.2,1677.8 -1470.72,3104.67 -1773.06,3010.85 -2482.02,3169.75 -2771.77,2982.8 -674.08,-435.71 -505.82,-1750.41 -505.82,-2684.42 0,-2917.73 442.55,-4134.28 -861.73,-4449.22 -432.85,-104.62 -751.36,-173.63 -1858.26,-184.79 -1420.77,-14.73 -2623.31,4.32 -3304.2,337.93 -452.98,221.82 -802.41,716.13 -589.58,744.52 263.16,35.23 859.21,160.71 1175.22,591.02 408.04,555.07 393.65,1801.84 393.65,1801.84 0,0 234.41,3434.7 -547.51,3861.43 -536.74,292.64 -1273.01,-304.86 -2853.73,-3036.37 -809.97,-1399.2 -1421.48,-2945.77 -1421.48,-2945.77 0,0 -117.91,-289.05 -328.23,-443.63 -255.24,-187.31 -611.88,-246.98 -611.88,-246.98l-3783.78 24.79c0,0 -568.01,15.83 -776.52,262.79 -185.5,219.66 -14.73,674.08 -14.73,674.08 0,0 2962.31,6930.51 6316.48,10423.08 3075.47,3202.15 6568.05,2991.83 6568.05,2991.83z"/>
 </g>
</svg>
